<svg width="9" height="14" viewBox="0 0 9 14" fill="none" xmlns="http://www.w3.org/2000/svg">
<path id="Vector" d="M5.90405 0.0975814C4.76102 -0.0325271 3.60692 -0.0325271 2.46389 0.0975814L1.28057 0.232606C1.19567 0.242363 1.11674 0.281136 1.05713 0.342372C0.997512 0.403608 0.960871 0.48355 0.953396 0.568684L0.862143 1.59398C0.709201 3.31747 0.709201 5.05113 0.862143 6.77462L0.953396 7.79992C0.961556 7.89228 1.00401 7.97824 1.0724 8.04085C1.14078 8.10347 1.23014 8.13821 1.32286 8.13822H2.85932V13.6297C2.85946 13.7065 2.88341 13.7813 2.92787 13.8439C2.97233 13.9065 3.0351 13.9537 3.10755 13.9791C3.17999 14.0045 3.25853 14.0068 3.33233 13.9857C3.40613 13.9646 3.47157 13.9211 3.5196 13.8612L3.80968 13.4977C5.53801 11.3341 6.91431 8.91147 7.88787 6.3191L8.02883 5.94296C8.04994 5.88683 8.05713 5.82642 8.04977 5.7669C8.04242 5.70739 8.02075 5.65054 7.98662 5.60124C7.95248 5.55193 7.9069 5.51164 7.85378 5.48381C7.80067 5.45598 7.74159 5.44144 7.68163 5.44144H5.66887L7.39377 0.728933C7.41311 0.676199 7.42023 0.619761 7.41458 0.563876C7.40893 0.507992 7.39067 0.45412 7.36116 0.406324C7.33165 0.358529 7.29168 0.318058 7.24425 0.287965C7.19682 0.257873 7.14318 0.238943 7.08737 0.232606L5.90405 0.0975814Z" fill="#9837CA"/>
</svg>
