<svg width="16" height="16" viewBox="0 0 16 16" fill="none" xmlns="http://www.w3.org/2000/svg">
<g id="ph:lightning-a-fill">
<path id="Vector" d="M10.8669 7.41126L4.91688 13.8394C4.84195 13.9209 4.74205 13.9753 4.63288 13.994C4.5237 14.0126 4.41142 13.9945 4.31367 13.9424C4.21591 13.8904 4.1382 13.8073 4.09275 13.7063C4.04729 13.6053 4.03665 13.4921 4.06251 13.3844L4.91688 9.78689L1.79188 8.38439C1.71954 8.35185 1.65597 8.30257 1.60643 8.24061C1.5569 8.17865 1.52282 8.1058 1.507 8.02807C1.49119 7.95034 1.49409 7.86996 1.51548 7.79357C1.53687 7.71718 1.57612 7.64698 1.63001 7.58876L7.58001 1.16064C7.65454 1.07741 7.75479 1.02155 7.86478 1.00195C7.97477 0.982358 8.08815 1.00016 8.18683 1.05253C8.28552 1.10489 8.36383 1.1888 8.40926 1.29086C8.4547 1.39292 8.46464 1.50726 8.43751 1.61564L7.58188 5.21314L10.7069 6.61501C10.7793 6.64752 10.843 6.69682 10.8926 6.75883C10.9422 6.82084 10.9764 6.89377 10.9922 6.97159C11.008 7.04941 11.0051 7.12988 10.9836 7.20634C10.9621 7.2828 10.9228 7.35305 10.8688 7.41126H10.8669ZM14.7238 13.9469C14.6544 13.9819 14.5777 14.0001 14.5 14C14.4071 14.0001 14.316 13.9743 14.237 13.9255C14.158 13.8767 14.0941 13.8068 14.0525 13.7238L13.4406 12.5H11.0588L10.4469 13.7238C10.3875 13.8424 10.2835 13.9325 10.1577 13.9744C10.0319 14.0163 9.89454 14.0065 9.77594 13.9472C9.65734 13.8879 9.56717 13.7838 9.52527 13.658C9.48337 13.5322 9.49316 13.3949 9.55251 13.2763L11.8025 8.77626C11.844 8.69322 11.9079 8.62339 11.9869 8.57458C12.0658 8.52577 12.1568 8.49992 12.2497 8.49992C12.3425 8.49992 12.4336 8.52577 12.5125 8.57458C12.5915 8.62339 12.6553 8.69322 12.6969 8.77626L14.9469 13.2763C15.0062 13.3948 15.016 13.532 14.9741 13.6578C14.9323 13.7835 14.8422 13.8875 14.7238 13.9469ZM12.9406 11.5L12.25 10.1181L11.5588 11.5H12.9406Z" fill="#070707"/>
</g>
</svg>
