<svg width="16" height="17" viewBox="0 0 16 17" fill="none" xmlns="http://www.w3.org/2000/svg">
<g id="solar:widget-5-bold">
<path id="Vector" d="M8.66665 10.7667C8.66665 9.38401 8.66665 8.69268 9.10598 8.26268C9.54531 7.83334 10.2526 7.83334 11.6666 7.83334C13.0806 7.83334 13.788 7.83334 14.2273 8.26268C14.6666 8.69334 14.6666 9.38401 14.6666 10.7667V12.2333C14.6666 13.616 14.6666 14.3073 14.2273 14.7373C13.788 15.1667 13.0806 15.1667 11.6666 15.1667C10.2526 15.1667 9.54531 15.1667 9.10598 14.7373C8.66665 14.3067 8.66665 13.616 8.66665 12.2333V10.7667ZM1.33331 6.23334C1.33331 7.61601 1.33331 8.30734 1.77265 8.73734C2.21198 9.16668 2.91931 9.16668 4.33331 9.16668C5.74731 9.16668 6.45465 9.16668 6.89398 8.73734C7.33331 8.30668 7.33331 7.61601 7.33331 6.23334V4.76668C7.33331 3.38401 7.33331 2.69268 6.89398 2.26268C6.45465 1.83334 5.74731 1.83334 4.33331 1.83334C2.91931 1.83334 2.21198 1.83334 1.77265 2.26268C1.33331 2.69334 1.33331 3.38401 1.33331 4.76668V6.23334ZM8.66665 4.16668C8.66665 3.44201 8.66665 3.08001 8.78065 2.79334C8.92912 2.41637 9.22118 2.11377 9.59265 1.95201C9.86798 1.83334 10.218 1.83334 10.9166 1.83334H12.4166C13.1153 1.83334 13.4653 1.83334 13.7406 1.95201C14.108 2.10934 14.4006 2.41201 14.5526 2.79334C14.6666 3.08001 14.6666 3.44201 14.6666 4.16668C14.6666 4.89134 14.6666 5.25334 14.5526 5.54001C14.4042 5.91698 14.1121 6.21959 13.7406 6.38134C13.4653 6.50001 13.1153 6.50001 12.4166 6.50001H10.9166C10.218 6.50001 9.86798 6.50001 9.59265 6.38134C9.22118 6.21959 8.92912 5.91698 8.78065 5.54001C8.66665 5.25334 8.66665 4.89134 8.66665 4.16668ZM1.33331 12.8333C1.33331 13.558 1.33331 13.92 1.44731 14.2067C1.59579 14.5836 1.88785 14.8863 2.25931 15.048C2.53465 15.1667 2.88465 15.1667 3.58331 15.1667H5.08331C5.78198 15.1667 6.13198 15.1667 6.40731 15.048C6.77465 14.8907 7.06731 14.588 7.21931 14.2067C7.33331 13.92 7.33331 13.558 7.33331 12.8333C7.33331 12.1087 7.33331 11.7467 7.21931 11.46C7.07083 11.083 6.77878 10.7804 6.40731 10.6187C6.13198 10.5 5.78198 10.5 5.08331 10.5H3.58331C2.88465 10.5 2.53465 10.5 2.25931 10.6187C1.89198 10.776 1.59931 11.0787 1.44731 11.46C1.33331 11.7467 1.33331 12.1087 1.33331 12.8333Z" fill="#9837CA"/>
</g>
</svg>
