<svg width="16" height="16" viewBox="0 0 16 16" fill="none" xmlns="http://www.w3.org/2000/svg">
<g id="solar:server-2-bold">
<path id="Vector" fill-rule="evenodd" clip-rule="evenodd" d="M1.72367 2.39067C1.33301 2.78133 1.33301 3.40933 1.33301 4.66667C1.33301 5.924 1.33301 6.552 1.72367 6.94267C2.11434 7.33333 2.74234 7.33333 3.99967 7.33333H11.9997C13.257 7.33333 13.885 7.33333 14.2757 6.94267C14.6663 6.552 14.6663 5.924 14.6663 4.66667C14.6663 3.40933 14.6663 2.78133 14.2757 2.39067C13.885 2 13.257 2 11.9997 2H3.99967C2.74234 2 2.11434 2 1.72367 2.39067ZM5.99967 5.83333C5.86707 5.83333 5.73989 5.78065 5.64612 5.68689C5.55235 5.59312 5.49967 5.46594 5.49967 5.33333V4C5.49967 3.86739 5.55235 3.74021 5.64612 3.64645C5.73989 3.55268 5.86707 3.5 5.99967 3.5C6.13228 3.5 6.25946 3.55268 6.35323 3.64645C6.447 3.74021 6.49967 3.86739 6.49967 4V5.33333C6.49967 5.46594 6.447 5.59312 6.35323 5.68689C6.25946 5.78065 6.13228 5.83333 5.99967 5.83333ZM8.99967 4.16667C8.86707 4.16667 8.73989 4.21935 8.64612 4.31311C8.55235 4.40688 8.49967 4.53406 8.49967 4.66667C8.49967 4.79927 8.55235 4.92645 8.64612 5.02022C8.73989 5.11399 8.86707 5.16667 8.99967 5.16667H11.9997C12.1323 5.16667 12.2595 5.11399 12.3532 5.02022C12.447 4.92645 12.4997 4.79927 12.4997 4.66667C12.4997 4.53406 12.447 4.40688 12.3532 4.31311C12.2595 4.21935 12.1323 4.16667 11.9997 4.16667H8.99967ZM3.99967 5.83333C3.86707 5.83333 3.73989 5.78065 3.64612 5.68689C3.55235 5.59312 3.49967 5.46594 3.49967 5.33333V4C3.49967 3.86739 3.55235 3.74021 3.64612 3.64645C3.73989 3.55268 3.86707 3.5 3.99967 3.5C4.13228 3.5 4.25946 3.55268 4.35323 3.64645C4.447 3.74021 4.49967 3.86739 4.49967 4V5.33333C4.49967 5.46594 4.447 5.59312 4.35323 5.68689C4.25946 5.78065 4.13228 5.83333 3.99967 5.83333ZM1.72367 9.05733C1.33301 9.448 1.33301 10.076 1.33301 11.3333C1.33301 12.5907 1.33301 13.2187 1.72367 13.6093C2.11434 14 2.74234 14 3.99967 14H11.9997C13.257 14 13.885 14 14.2757 13.6093C14.6663 13.2187 14.6663 12.5907 14.6663 11.3333C14.6663 10.076 14.6663 9.448 14.2757 9.05733C13.885 8.66667 13.257 8.66667 11.9997 8.66667H3.99967C2.74234 8.66667 2.11434 8.66667 1.72367 9.05733ZM8.49967 11.3333C8.49967 11.2007 8.55235 11.0735 8.64612 10.9798C8.73989 10.886 8.86707 10.8333 8.99967 10.8333H11.9997C12.1323 10.8333 12.2595 10.886 12.3532 10.9798C12.447 11.0735 12.4997 11.2007 12.4997 11.3333C12.4997 11.4659 12.447 11.5931 12.3532 11.6869C12.2595 11.7807 12.1323 11.8333 11.9997 11.8333H8.99967C8.86707 11.8333 8.73989 11.7807 8.64612 11.6869C8.55235 11.5931 8.49967 11.4659 8.49967 11.3333ZM3.49967 12C3.49967 12.1326 3.55235 12.2598 3.64612 12.3536C3.73989 12.4473 3.86707 12.5 3.99967 12.5C4.13228 12.5 4.25946 12.4473 4.35323 12.3536C4.447 12.2598 4.49967 12.1326 4.49967 12V10.6667C4.49967 10.5341 4.447 10.4069 4.35323 10.3131C4.25946 10.2193 4.13228 10.1667 3.99967 10.1667C3.86707 10.1667 3.73989 10.2193 3.64612 10.3131C3.55235 10.4069 3.49967 10.5341 3.49967 10.6667V12ZM5.99967 12.5C5.86707 12.5 5.73989 12.4473 5.64612 12.3536C5.55235 12.2598 5.49967 12.1326 5.49967 12V10.6667C5.49967 10.5341 5.55235 10.4069 5.64612 10.3131C5.73989 10.2193 5.86707 10.1667 5.99967 10.1667C6.13228 10.1667 6.25946 10.2193 6.35323 10.3131C6.447 10.4069 6.49967 10.5341 6.49967 10.6667V12C6.49967 12.1326 6.447 12.2598 6.35323 12.3536C6.25946 12.4473 6.13228 12.5 5.99967 12.5Z" fill="#555555"/>
</g>
</svg>
