<svg width="16" height="16" viewBox="0 0 16 16" fill="none" xmlns="http://www.w3.org/2000/svg">
<g id="solar:widget-bold-duotone">
<g id="Group">
<path id="Vector" opacity="0.5" d="M2.46599 9.59099C1.7161 8.8411 1.34098 8.46598 1.34098 8C1.34098 7.53402 1.7161 7.1589 2.46599 6.40901C3.21588 5.65912 3.591 5.284 4.05698 5.284C4.52296 5.284 4.89808 5.65912 5.64797 6.40901C6.39786 7.1589 6.77298 7.53402 6.77298 8C6.77298 8.46598 6.39786 8.8411 5.64797 9.59099C4.89808 10.3409 4.52296 10.716 4.05698 10.716C3.591 10.716 3.21588 10.3409 2.46599 9.59099ZM10.2442 9.59099C9.49428 8.8411 9.11916 8.46598 9.11916 8C9.11916 7.53402 9.49428 7.1589 10.2442 6.40901C10.9941 5.65912 11.3692 5.284 11.8352 5.284C12.3011 5.284 12.6763 5.65912 13.4261 6.40901C14.176 7.1589 14.5512 7.53402 14.5512 8C14.5512 8.46598 14.176 8.8411 13.4261 9.59099C12.6763 10.3409 12.3011 10.716 11.8352 10.716C11.3692 10.716 10.9941 10.3409 10.2442 9.59099Z" fill="#555555"/>
<path id="Vector_2" d="M6.35508 13.4801C5.60519 12.7302 5.23007 12.3551 5.23007 11.8891C5.23007 11.4231 5.60519 11.048 6.35508 10.2981C7.10496 9.54821 7.48008 9.17309 7.94607 9.17309C8.41205 9.17309 8.78717 9.54821 9.53706 10.2981C10.2869 11.048 10.6621 11.4231 10.6621 11.8891C10.6621 12.3551 10.2869 12.7302 9.53706 13.4801C8.78717 14.23 8.41205 14.6051 7.94607 14.6051C7.48008 14.6051 7.10496 14.23 6.35508 13.4801ZM6.35508 5.7019C5.60519 4.95202 5.23007 4.5769 5.23007 4.11091C5.23007 3.64493 5.60519 3.26981 6.35508 2.51992C7.10496 1.77004 7.48008 1.39492 7.94607 1.39492C8.41205 1.39492 8.78717 1.77004 9.53706 2.51992C10.2869 3.26981 10.6621 3.64493 10.6621 4.11091C10.6621 4.5769 10.2869 4.95202 9.53706 5.7019C8.78717 6.45179 8.41205 6.82691 7.94607 6.82691C7.48008 6.82691 7.10496 6.45179 6.35508 5.7019Z" fill="#555555"/>
</g>
</g>
</svg>
