<svg width="23" height="24" viewBox="0 0 23 24" fill="none" xmlns="http://www.w3.org/2000/svg">
<g id="solar:bell-bold">
<path id="Vector" d="M8.33 19.7269C8.73795 20.2427 9.25779 20.6591 9.85026 20.9447C10.4427 21.2302 11.0923 21.3773 11.75 21.375C12.4077 21.3773 13.0573 21.2302 13.6497 20.9447C14.2422 20.6591 14.762 20.2427 15.17 19.7269C12.9004 20.0345 10.5996 20.0345 8.33 19.7269ZM18.0781 9.1875V9.8475C18.0781 10.6397 18.3031 11.4141 18.7269 12.0731L19.7656 13.6884C20.7134 15.1641 19.9897 17.1694 18.3406 17.6353C14.0316 18.8559 9.46835 18.8559 5.15937 17.6353C3.51031 17.1694 2.78656 15.1641 3.73437 13.6884L4.77312 12.0731C5.19835 11.4088 5.42385 10.6363 5.42281 9.8475V9.1875C5.42281 5.56313 8.25593 2.625 11.75 2.625C15.2441 2.625 18.0781 5.56313 18.0781 9.1875Z" fill="#555555"/>
</g>
</svg>
