<svg width="16" height="16" viewBox="0 0 16 16" fill="none" xmlns="http://www.w3.org/2000/svg">
<g id="solar:laptop-minimalistic-bold">
<path id="Vector" fill-rule="evenodd" clip-rule="evenodd" d="M0.666748 13.4933C0.666748 13.2133 0.896081 12.9867 1.17808 12.9867H14.8221C15.1041 12.9867 15.3334 13.2133 15.3334 13.4933C15.3334 13.7733 15.1041 14 14.8221 14H1.17808C1.04311 14.0005 0.913451 13.9475 0.817576 13.8525C0.721701 13.7575 0.667454 13.6283 0.666748 13.4933ZM2.46008 2.59333C1.86008 3.18667 1.86008 4.14267 1.86008 6.05333V9.43133C1.86008 10.7047 1.86008 11.342 2.26008 11.738C2.66008 12.1333 3.30275 12.1333 4.58941 12.1333H11.4107C12.6974 12.1333 13.3407 12.1333 13.7401 11.7373C14.1401 11.342 14.1401 10.7047 14.1401 9.43067V6.05333C14.1401 4.14267 14.1401 3.18667 13.5401 2.59333C12.9407 2 11.9761 2 10.0467 2H5.95341C4.02408 2 3.05941 2 2.46008 2.59333ZM5.44208 10.1067C5.44208 9.82667 5.67075 9.6 5.95341 9.6H10.0467C10.3294 9.6 10.5581 9.82667 10.5581 10.1067C10.5581 10.3867 10.3294 10.6133 10.0467 10.6133H5.95341C5.81845 10.6139 5.68878 10.5608 5.59291 10.4658C5.49703 10.3708 5.44279 10.2416 5.44208 10.1067Z" fill="#555555"/>
</g>
</svg>
