<svg width="16" height="17" viewBox="0 0 16 17" fill="none" xmlns="http://www.w3.org/2000/svg">
<g id="solar:database-bold-duotone">
<g id="Group">
<path id="Vector" d="M8.00002 7.16668C10.9454 7.16668 13.3334 5.97334 13.3334 4.50001C13.3334 3.02668 10.9454 1.83334 8.00002 1.83334C5.05469 1.83334 2.66669 3.02668 2.66669 4.50001C2.66669 5.97334 5.05469 7.16668 8.00002 7.16668Z" fill="#555555"/>
<path id="Vector_2" opacity="0.5" d="M2.66669 8.5V12.5C2.66669 13.9733 5.05469 15.1667 8.00002 15.1667C10.9454 15.1667 13.3334 13.9733 13.3334 12.5V8.5C13.3334 9.97333 10.9454 11.1667 8.00002 11.1667C5.05469 11.1667 2.66669 9.97333 2.66669 8.5Z" fill="#555555"/>
<path id="Vector_3" opacity="0.7" d="M2.66669 4.5V8.5C2.66669 9.97333 5.05469 11.1667 8.00002 11.1667C10.9454 11.1667 13.3334 9.97333 13.3334 8.5V4.5C13.3334 5.97333 10.9454 7.16667 8.00002 7.16667C5.05469 7.16667 2.66669 5.97333 2.66669 4.5Z" fill="#555555"/>
</g>
</g>
</svg>
